<?xml version="1.0" standalone="no"?>
<!DOCTYPE svg PUBLIC "-//W3C//DTD SVG 20010904//EN" "http://www.w3.org/TR/2001/REC-SVG-20010904/DTD/svg10.dtd">
<svg version="1.0" xmlns="http://www.w3.org/2000/svg"
  width="70.000000pt" height="97.850000pt" viewBox="0 0 70.000000 97.850000"
  aria-labelledby="title desc" role="img">
  <title id="title">Icon</title>
  <desc id="desc">SHIJING</desc>
  <g fill="none" fill-rule="evenodd">
    <path
      d="M170 1281 c-61 -13 -114 -44 -135 -81 -19 -33 -20 -55 -23 -394 l-3
-360 58 52 c104 93 137 121 193 163 68 52 262 230 257 236 -13 12 -152 -80
-165 -109 -7 -15 -79 -8 -92 7 -7 9 -24 39 -37 68 -24 50 -24 52 -7 97 29 78
31 79 157 77 86 -1 135 4 210 22 111 27 113 26 195 -38 38 -30 52 -48 52 -67
0 -25 -4 -28 -52 -38 -17 -4 -97 -75 -217 -193 -105 -102 -191 -190 -191 -194
0 -10 -81 -89 -91 -89 -5 0 -39 -26 -78 -57 -38 -32 -97 -80 -130 -106 l-61
-49 0 -78 c0 -69 3 -82 24 -107 l24 -28 386 -3 c411 -3 430 -1 455 47 6 11 11
169 12 392 2 407 -3 454 -56 558 -55 109 -189 201 -365 251 -80 23 -258 35
-320 21z m324 -717 c25 -10 19 -32 -20 -80 l-36 -44 26 0 c18 0 30 8 38 25 12
27 27 32 45 14 9 -9 1 -25 -34 -65 -43 -52 -45 -68 -4 -42 15 9 23 9 35 -1 9
-8 16 -19 16 -27 0 -19 -19 -27 -35 -14 -11 9 -25 7 -61 -9 -37 -17 -49 -19
-56 -9 -12 21 -10 27 24 57 36 32 34 50 -3 31 -19 -11 -25 -10 -36 6 -11 15
-10 21 11 43 28 30 56 83 56 106 0 16 9 19 34 9z m254 -26 c21 -21 14 -26 -59
-38 -51 -9 -74 -9 -82 -1 -6 6 -9 12 -6 14 3 3 107 32 130 36 3 1 10 -4 17
-11z m28 -60 c4 -6 -4 -19 -19 -30 -30 -22 -35 -38 -12 -38 17 0 39 -36 30
-50 -12 -20 -34 -9 -55 25 -21 33 -21 37 -6 54 9 10 16 25 16 34 0 19 35 23
46 5z m-162 -4 c23 -9 20 -22 -11 -48 l-27 -23 22 -12 c23 -12 31 -51 10 -51
-7 0 -21 12 -31 26 -17 23 -18 30 -6 70 14 46 17 48 43 38z m82 -9 c4 -9 -4
-23 -17 -34 l-24 -19 24 -19 c14 -11 21 -25 17 -31 -12 -20 -31 -13 -49 17
-16 28 -16 32 0 65 17 38 40 47 49 21z m52 -142 c2 -8 -6 -13 -22 -13 -25 0
-46 -24 -46 -53 0 -11 14 -14 57 -13 45 1 58 -2 61 -15 2 -14 -15 -17 -124
-22 -69 -4 -130 -4 -135 -1 -19 11 -8 24 20 24 16 0 43 3 60 6 27 6 32 11 29
33 -3 23 -7 26 -35 23 -27 -2 -33 1 -33 19 0 11 3 18 8 16 4 -3 27 -1 52 3 61
11 103 8 108 -7z m-198 -28 c10 -13 11 -18 1 -28 -10 -9 -15 -8 -27 7 -8 11
-14 23 -14 28 0 14 27 9 40 -7z m-69 -15 c21 -12 25 -35 8 -45 -11 -8 -38 22
-39 43 0 15 6 15 31 2z m-51 -28 c20 -16 21 -21 10 -41 -10 -20 -14 -21 -25
-10 -18 18 -30 69 -17 69 5 0 20 -8 32 -18z" />
    <path d="M203 576 c-21 -19 -33 -36 -28 -36 16 0 81 57 73 65 -3 4 -24 -9 -45
-29z" />
    <path
      d="M120 509 c-14 -11 -38 -30 -53 -42 -51 -40 -60 -51 -48 -55 6 -2 11
-10 11 -18 0 -20 6 -18 46 12 36 28 40 44 5 23 -33 -21 -39 1 -7 25 48 35 92
75 81 75 -5 0 -21 -9 -35 -20z" />
  </g>
</svg>